<svg xmlns="http://www.w3.org/2000/svg" height="636" width="636">
<circle r="318" cy="318" cx="318" fill="#fff"/>
<path d="M604.83544 229.7156C587.25727 170.89016 504.18629 41.11992 351.88549 42.11992c-139.08055.9132-237.24229 118.35907-237.24229 212.48486 0 17.46804 8.59281 24.78714 12.91323 41.24709-1.80441-7.20917-2.72779-14.38445-2.72779-21.40725 0-98.05652 98.15818-165.98025 199.06957-165.98025 136.65224 0 247.39893 110.74669 247.39893 247.33964 0 107.07009-61.63795 199.81505-151.13835 244.33228v.0762C535.5817 558.41457 618 447.84578 618 318.01301c0-30.72579-4.1171-57.82581-13.16456-88.29746" fill="#e4032e"/>
<path d="M467.51821 295.85364c-50.59971-34.38544-115.37208-20.3822-149.4356 31.31879-28.32838 43.21264-71.20217 48.59198-87.72141 48.59198-54.17464 0-91.13538-38.08744-102.1228-77.46253h-.0339c-.13554-.43205-.21179-.7709-.31344-1.1267-.11013-.44051-.19485-.87256-.33039-1.32154-4.32042-16.45994-5.41323-24.27905-5.41323-41.74709 0-94.13426 96.65027-198.98485 235.74229-198.98485 142.48904 0 224.0348 108.46788 245.11165 168.76735-.42357-1.1267-.77089-2.14327-1.10975-3.20219C561.4661 102.76489 449.66049 18 317.94707 18 152.33955 18 18 152.27178 18 318.01484c0 148.11406 106.82443 274.88018 255.04014 274.88018 118.1507 0 197.58708-66.23793 233.97176-157.57662 20.00099-49.97283 5.87069-108.65426-39.49369-139.46476" fill="#003764"/>
</svg>